<svg xmlns="http://www.w3.org/2000/svg" width="180" height="180" viewBox="0 0 180 180">
  <defs>
    <linearGradient id="bg" x1="0%" y1="0%" x2="100%" y2="100%">
      <stop offset="0%" stop-color="#d946ef"/>
      <stop offset="50%" stop-color="#a855f7"/>
      <stop offset="100%" stop-color="#4f46e5"/>
    </linearGradient>
  </defs>
  <rect width="180" height="180" rx="40" fill="url(#bg)"/>

  <!-- R dominant - strokes blancs épais -->
  <g stroke="white" stroke-linecap="round" stroke-linejoin="round" fill="none">
    <line x1="38" y1="30" x2="38" y2="150" stroke-width="19.5"/>
    <line x1="38" y1="30" x2="90" y2="30" stroke-width="19.5"/>
    <line x1="90" y1="30" x2="90" y2="83" stroke-width="19.5"/>
    <line x1="38" y1="83" x2="90" y2="83" stroke-width="19.5"/>
    <line x1="83" y1="83" x2="135" y2="150" stroke-width="19.5"/>
  </g>

  <!-- Petit sablier accent en haut-droite, traits doux -->
  <g transform="translate(116, 11)" stroke="white" stroke-linecap="round" stroke-linejoin="round" fill="none" stroke-width="8">
    <line x1="2.3" y1="3.8" x2="45" y2="3.8"/>
    <line x1="3.8" y1="7.5" x2="23.6" y2="26.3"/>
    <line x1="43.9" y1="7.5" x2="23.6" y2="26.3"/>
    <line x1="3.8" y1="45" x2="23.6" y2="26.3"/>
    <line x1="43.9" y1="45" x2="23.6" y2="26.3"/>
    <path d="M5.3 8.3 L42.4 8.3 L23.6 25.5 Z" fill="white" fill-opacity="0.85" stroke-width="0"/>
    <line x1="2.3" y1="48.8" x2="45" y2="48.8"/>
  </g>
</svg>
