<svg xmlns="http://www.w3.org/2000/svg" width="48" height="48" viewBox="0 0 48 48">
  <defs>
    <linearGradient id="bg" x1="0%" y1="0%" x2="100%" y2="100%">
      <stop offset="0%" stop-color="#d946ef"/>
      <stop offset="50%" stop-color="#a855f7"/>
      <stop offset="100%" stop-color="#4f46e5"/>
    </linearGradient>
  </defs>
  <rect width="48" height="48" rx="12" fill="url(#bg)"/>

  <!-- R dominant - strokes blancs épais -->
  <g stroke="white" stroke-linecap="round" stroke-linejoin="round" fill="none">
    <line x1="10" y1="8" x2="10" y2="40" stroke-width="5.2"/>
    <line x1="10" y1="8" x2="24" y2="8" stroke-width="5.2"/>
    <line x1="24" y1="8" x2="24" y2="22" stroke-width="5.2"/>
    <line x1="10" y1="22" x2="24" y2="22" stroke-width="5.2"/>
    <line x1="22" y1="22" x2="36" y2="40" stroke-width="5.2"/>
  </g>

  <!-- Petit sablier accent en haut-droite, traits doux -->
  <g transform="translate(31, 3)" stroke="white" stroke-linecap="round" stroke-linejoin="round" fill="none" stroke-width="2.2">
    <line x1="0.6" y1="1" x2="12" y2="1"/>
    <line x1="1" y1="2" x2="6.3" y2="7"/>
    <line x1="11.7" y1="2" x2="6.3" y2="7"/>
    <line x1="1" y1="12" x2="6.3" y2="7"/>
    <line x1="11.7" y1="12" x2="6.3" y2="7"/>
    <path d="M1.4 2.2 L11.3 2.2 L6.3 6.8 Z" fill="white" fill-opacity="0.85" stroke-width="0"/>
    <line x1="0.6" y1="13" x2="12" y2="13"/>
  </g>
</svg>
